# This file uses centimeters as units for non-parametric coordinates.

mtllib Ceiling.mtl
g default
v -3.912753 3.403821 13.525292
v 0.193498 3.403821 13.525292
v 0.193498 3.403821 9.525293
v -3.912753 3.403821 9.525293
v -1.641458 3.403821 13.525292
v -1.641458 3.403821 9.525293
v -2.121458 3.403821 13.525292
v -2.121458 3.403821 9.525293
v -0.704243 3.403821 9.525293
v -0.704242 3.403821 13.525292
v -0.237278 3.403821 9.525293
v -0.237278 3.403821 13.525292
v -3.029553 3.403821 9.525293
v -3.029553 3.403821 13.525292
v -3.444273 3.403821 13.525292
v -3.444273 3.403821 9.525293
v -2.121458 3.265937 13.303520
v -2.121458 3.265937 9.747066
v -1.641458 3.265937 9.747066
v -1.641458 3.265937 13.303520
v -3.444273 3.265937 13.303520
v -3.444273 3.265937 9.747066
v -3.029553 3.265937 9.747066
v -3.029553 3.265937 13.303520
v -0.704243 3.265937 9.747066
v -0.704242 3.265937 13.303520
v -0.237278 3.265937 9.747066
v -0.237278 3.265937 13.303520
v 0.193498 3.403821 11.925293
v -0.237278 3.403821 11.925293
v -0.237278 3.265937 11.880938
v -0.704242 3.265937 11.880938
v -0.704242 3.403821 11.925293
v -1.641458 3.403821 11.925293
v -1.641458 3.265937 11.880938
v -2.121458 3.265937 11.880938
v -2.121458 3.403821 11.925293
v -3.029553 3.403821 11.925293
v -3.029553 3.265937 11.880938
v -3.444273 3.265937 11.880938
v -3.444273 3.403821 11.925293
v -3.912753 3.403821 11.925293
v -3.912753 3.403821 11.205292
v -3.444273 3.403821 11.205292
v -3.444273 3.265937 11.240776
v -3.029553 3.265937 11.240776
v -3.029553 3.403821 11.205292
v -2.121458 3.403821 11.205292
v -2.121458 3.265937 11.240776
v -1.641458 3.265937 11.240776
v -1.641458 3.403821 11.205292
v -0.704242 3.403821 11.205292
v -0.704242 3.265937 11.240776
v -0.237278 3.265937 11.240776
v -0.237278 3.403821 11.205292
v 0.193498 3.403821 11.205292
v -0.704242 3.403821 11.758162
v -1.641458 3.403821 11.758162
v -1.641458 3.403821 11.372423
v -0.704242 3.403821 11.372423
v 0.193498 3.403821 11.758162
v -0.237278 3.403821 11.758162
v -0.237278 3.403821 11.372423
v 0.193498 3.403821 11.372423
v -2.121458 3.403821 11.758162
v -3.029553 3.403821 11.758162
v -3.029553 3.403821 11.372423
v -2.121458 3.403821 11.372423
v -3.912753 3.403821 11.372423
v -3.444273 3.403821 11.372423
v -3.444273 3.403821 11.758162
v -3.912753 3.403821 11.758162
v -0.704242 3.315234 11.719892
v -1.641458 3.315234 11.719892
v -1.641458 3.315234 11.410693
v -0.704242 3.315234 11.410693
v 0.193498 3.315234 11.719892
v -0.237278 3.315234 11.719892
v -0.237278 3.315234 11.410693
v 0.193498 3.315234 11.410693
v -2.121458 3.315234 11.719892
v -3.029553 3.315234 11.719892
v -3.029553 3.315234 11.410693
v -2.121458 3.315234 11.410693
v -3.912753 3.315234 11.410693
v -3.444273 3.315234 11.410693
v -3.444273 3.315234 11.719892
v -3.912753 3.315234 11.719892
v -1.641458 3.403821 13.732356
v -0.704242 3.403821 13.732356
v -2.121458 3.403821 13.732356
v -3.444273 3.403821 13.732356
v -3.029553 3.403821 13.732356
v -0.237278 3.403821 13.732356
v 0.193498 3.403821 13.732356
v -3.912753 3.403821 13.732356
v -0.704243 3.403821 9.333156
v -1.641458 3.403821 9.333156
v -2.121458 3.403821 9.333156
v -3.029553 3.403821 9.333156
v -3.444273 3.403821 9.333156
v -0.237278 3.403821 9.333156
v 0.193498 3.403821 9.333156
v -3.912753 3.403821 9.333156
vt 0.330394 0.677583
vt 0.236851 0.677583
vt 0.236851 0.646722
vt 0.330394 0.646722
vt 0.444966 0.708889
vt 0.876715 0.787025
vt 0.821048 0.787025
vt 0.444966 0.593549
vt 0.821048 0.710535
vt 0.480267 0.698850
vt 0.480267 0.587486
vt 0.876715 0.710535
vt 0.549122 0.814249
vt 0.798792 0.783204
vt 0.750673 0.783204
vt 0.549122 0.737424
vt 0.750672 0.706678
vt 0.475681 0.315893
vt 0.444966 0.345260
vt 0.798792 0.706678
vt 0.475681 0.593549
vt 0.475681 0.708889
vt 0.475681 0.989585
vt 0.950141 0.791007
vt 0.896006 0.791007
vt 0.444966 0.952604
vt 0.518190 0.698850
vt 0.518190 0.587486
vt 0.419997 0.679383
vt 0.377002 0.679383
vt 0.377002 0.648522
vt 0.419997 0.648522
vt 0.188942 0.675390
vt 0.098306 0.675390
vt 0.098306 0.644529
vt 0.188942 0.644529
vt 0.010154 0.642804
vt 0.056913 0.642804
vt 0.056913 0.673665
vt 0.010154 0.673665
vt 0.377002 0.970839
vt 0.377002 0.814016
vt 0.419997 0.814016
vt 0.419997 0.970839
vt 0.236851 0.970839
vt 0.236851 0.812217
vt 0.330394 0.812217
vt 0.330394 0.970839
vt 0.098306 0.970839
vt 0.098306 0.810024
vt 0.188942 0.810024
vt 0.188942 0.970839
vt 0.010154 0.808299
vt 0.056913 0.808299
vt 0.056913 0.970839
vt 0.010154 0.970839
vt 0.010154 0.343334
vt 0.056913 0.343334
vt 0.056913 0.508171
vt 0.010154 0.508171
vt 0.188942 0.509895
vt 0.098306 0.509895
vt 0.098306 0.343334
vt 0.188942 0.343334
vt 0.330394 0.512089
vt 0.236851 0.512089
vt 0.236851 0.343334
vt 0.330394 0.343334
vt 0.419997 0.513888
vt 0.377002 0.513888
vt 0.377002 0.343334
vt 0.419997 0.343334
vt 0.236851 0.795536
vt 0.330394 0.795536
vt 0.330394 0.528770
vt 0.236851 0.528770
vt 0.377002 0.797335
vt 0.419997 0.797335
vt 0.419997 0.530569
vt 0.377002 0.530569
vt 0.098306 0.793342
vt 0.188942 0.793342
vt 0.188942 0.526577
vt 0.098306 0.526577
vt 0.056913 0.524852
vt 0.010154 0.524852
vt 0.010154 0.791618
vt 0.056913 0.791618
vt 0.330394 0.991506
vt 0.236851 0.991506
vt 0.188942 0.991506
vt 0.098306 0.991506
vt 0.056913 0.991506
vt 0.377002 0.991506
vt 0.419997 0.991506
vt 0.010154 0.991506
vt 0.236851 0.324157
vt 0.330394 0.324157
vt 0.188942 0.324157
vt 0.056913 0.324157
vt 0.098306 0.324157
vt 0.377002 0.324157
vt 0.419997 0.324157
vt 0.010154 0.324157
vt 0.735553 0.824025
vt 0.674219 0.828367
vt 0.674219 0.757896
vt 0.735553 0.761369
vt 0.674219 0.984967
vt 0.735553 0.963261
vt 0.674219 0.593466
vt 0.735553 0.615172
vt 0.518190 0.319398
vt 0.896006 0.714546
vt 0.950141 0.714546
vt 0.480267 0.347766
vt 0.821048 0.493774
vt 0.518190 0.969860
vt 0.480267 0.934169
vt 0.876715 0.493775
vt 0.876715 0.542764
vt 0.586778 0.558164
vt 0.549122 0.558164
vt 0.821048 0.542764
vt 0.586778 0.737424
vt 0.586778 0.814249
vt 0.586778 0.984972
vt 0.876715 0.981423
vt 0.665378 0.830318
vt 0.632752 0.830318
vt 0.632752 0.763755
vt 0.665378 0.763755
vt 0.632752 0.985632
vt 0.665378 0.985632
vt 0.632752 0.615837
vt 0.665378 0.615837
vt 0.631641 0.837714
vt 0.599015 0.837714
vt 0.599015 0.771151
vt 0.631641 0.771151
vt 0.599015 0.985632
vt 0.631641 0.985632
vt 0.599015 0.615837
vt 0.631641 0.615837
vt 0.821048 0.981423
vt 0.549122 0.984972
vt 0.821048 0.943276
vt 0.876715 0.943276
vt 0.750672 0.492879
vt 0.798792 0.492879
vt 0.798792 0.541892
vt 0.750672 0.541892
vt 0.798792 0.980796
vt 0.750673 0.980796
vt 0.750673 0.942631
vt 0.798792 0.942631
vt 0.896006 0.494697
vt 0.950141 0.494697
vt 0.950141 0.543667
vt 0.896006 0.543667
vt 0.950141 0.982084
vt 0.896006 0.982084
vt 0.896006 0.943951
vt 0.950141 0.943951
vn 0.000000 -1.000000 0.000000
vn 0.000000 -1.000000 0.000000
vn 0.000000 -1.000000 0.000000
vn 0.000000 -1.000000 0.000000
vn 0.000000 -1.000000 0.000000
vn 0.000000 -1.000000 0.000000
vn 0.000000 -1.000000 -0.000000
vn 0.000000 -1.000000 -0.000000
vn 0.000000 -1.000000 0.000000
vn 0.000000 -1.000000 0.000000
vn 0.000000 -1.000000 -0.000000
vn 0.000000 -1.000000 -0.000000
vn 0.000000 -1.000000 0.000000
vn 0.000000 -1.000000 0.000000
vn 0.000000 -1.000000 -0.000000
vn 0.000000 -1.000000 -0.000000
vn 0.000000 -1.000000 0.000000
vn 0.000000 -1.000000 0.000000
vn 0.000000 -1.000000 0.000000
vn 0.000000 -1.000000 0.000000
vn 0.000000 -1.000000 0.000000
vn 0.000000 -1.000000 0.000000
vn 0.000000 -1.000000 0.000000
vn 0.000000 -1.000000 0.000000
vn 0.000000 -1.000000 0.000000
vn 0.000000 -1.000000 0.000000
vn 0.000000 -1.000000 0.000000
vn 0.000000 -1.000000 0.000000
vn -1.000000 -0.000000 0.000000
vn -1.000000 -0.000000 0.000000
vn -1.000000 -0.000000 0.000000
vn -1.000000 -0.000000 0.000000
vn 0.000000 -0.849242 -0.528004
vn 0.000000 -0.849242 -0.528004
vn 0.000000 -0.849242 -0.528004
vn 0.000000 -0.849242 -0.528004
vn 1.000000 0.000000 0.000000
vn 1.000000 0.000000 0.000000
vn 1.000000 0.000000 0.000000
vn 1.000000 0.000000 0.000000
vn 0.000000 -0.849241 0.528005
vn 0.000000 -0.849241 0.528005
vn 0.000000 -0.849241 0.528005
vn 0.000000 -0.849241 0.528005
vn -1.000000 -0.000000 0.000000
vn -1.000000 -0.000000 0.000000
vn -1.000000 0.000000 -0.000000
vn -1.000000 0.000000 -0.000000
vn 0.000000 -0.849242 -0.528004
vn 0.000000 -0.849242 -0.528004
vn 0.000000 -0.849242 -0.528004
vn 0.000000 -0.849242 -0.528004
vn 1.000000 0.000000 0.000000
vn 1.000000 0.000000 0.000000
vn 1.000000 0.000000 0.000000
vn 1.000000 0.000000 0.000000
vn 0.000000 -0.849241 0.528005
vn 0.000000 -0.849241 0.528005
vn 0.000000 -0.849241 0.528005
vn 0.000000 -0.849241 0.528005
vn -1.000000 -0.000000 0.000000
vn -1.000000 -0.000000 0.000000
vn -1.000000 0.000000 0.000000
vn -1.000000 0.000000 0.000000
vn 0.000000 -0.849242 -0.528004
vn 0.000000 -0.849242 -0.528004
vn 0.000000 -0.849242 -0.528004
vn 0.000000 -0.849242 -0.528004
vn 1.000000 0.000000 0.000000
vn 1.000000 0.000000 0.000000
vn 1.000000 0.000000 -0.000000
vn 1.000000 0.000000 -0.000000
vn 0.000000 -0.849241 0.528005
vn 0.000000 -0.849241 0.528005
vn 0.000000 -0.849241 0.528005
vn 0.000000 -0.849241 0.528005
vn 0.000000 -1.000000 0.000000
vn 0.000000 -1.000000 0.000000
vn 0.000000 -1.000000 0.000000
vn 0.000000 -1.000000 0.000000
vn 1.000000 0.000000 -0.000000
vn 1.000000 0.000000 -0.000000
vn 0.000000 -1.000000 0.000000
vn 0.000000 -1.000000 0.000000
vn -1.000000 -0.000000 0.000000
vn -1.000000 -0.000000 0.000000
vn 0.000000 -1.000000 0.000000
vn 0.000000 -1.000000 0.000000
vn 0.000000 -1.000000 0.000000
vn 0.000000 -1.000000 0.000000
vn 1.000000 0.000000 0.000000
vn 1.000000 0.000000 0.000000
vn 0.000000 -1.000000 0.000000
vn 0.000000 -1.000000 0.000000
vn -1.000000 -0.000000 0.000000
vn -1.000000 -0.000000 0.000000
vn 0.000000 -1.000000 0.000000
vn 0.000000 -1.000000 0.000000
vn 0.000000 -1.000000 0.000000
vn 0.000000 -1.000000 0.000000
vn 1.000000 0.000000 0.000000
vn 1.000000 0.000000 0.000000
vn 0.000000 -1.000000 0.000000
vn 0.000000 -1.000000 0.000000
vn -1.000000 -0.000000 0.000000
vn -1.000000 -0.000000 0.000000
vn -0.000000 -1.000000 0.000000
vn -0.000000 -1.000000 0.000000
vn -0.000000 -1.000000 0.000000
vn -0.000000 -1.000000 0.000000
vn -0.000000 -1.000000 -0.000000
vn -0.000000 -1.000000 -0.000000
vn -0.000000 -1.000000 -0.000000
vn -0.000000 -1.000000 -0.000000
vn -1.000000 0.000000 -0.000000
vn -1.000000 0.000000 -0.000000
vn 0.000000 -1.000000 -0.000000
vn 0.000000 -1.000000 -0.000000
vn 1.000000 0.000000 0.000000
vn 1.000000 0.000000 0.000000
vn 0.000000 -1.000000 -0.000000
vn 0.000000 -1.000000 -0.000000
vn 0.000000 -1.000000 -0.000000
vn 0.000000 -1.000000 -0.000000
vn -1.000000 -0.000000 0.000000
vn -1.000000 -0.000000 0.000000
vn 0.000000 -1.000000 -0.000000
vn 0.000000 -1.000000 -0.000000
vn 1.000000 0.000000 0.000000
vn 1.000000 0.000000 0.000000
vn 0.000000 -1.000000 -0.000000
vn 0.000000 -1.000000 -0.000000
vn 0.000000 -1.000000 -0.000000
vn 0.000000 -1.000000 -0.000000
vn -1.000000 0.000001 0.000001
vn -1.000000 0.000001 0.000001
vn 0.000000 -1.000000 -0.000000
vn 0.000000 -1.000000 -0.000000
vn 1.000000 0.000000 0.000000
vn 1.000000 0.000000 0.000000
vn 0.000000 -1.000000 -0.000000
vn 0.000000 -1.000000 -0.000000
vn 0.000000 -1.000000 -0.000000
vn 0.000000 -1.000000 -0.000000
vn 0.000000 -1.000000 0.000000
vn 0.000000 -1.000000 0.000000
vn 0.000000 -1.000000 0.000000
vn 0.000000 -1.000000 0.000000
vn -0.000000 -0.000000 0.000000
vn -0.000000 -0.000000 0.000000
vn -1.000000 -0.000000 0.000000
vn -1.000000 -0.000000 0.000000
vn 0.000000 -1.000000 0.000000
vn 0.000000 -1.000000 0.000000
vn 0.000000 -1.000000 0.000000
vn 0.000000 -1.000000 0.000000
vn 0.000000 0.000000 0.000000
vn 0.000000 0.000000 0.000000
vn 1.000000 0.000000 0.000000
vn 1.000000 0.000000 0.000000
vn 0.000000 -1.000000 0.000000
vn 0.000000 -1.000000 0.000000
vn 0.000000 -1.000000 0.000000
vn 0.000000 -1.000000 0.000000
vn -0.000000 -0.000000 0.000000
vn -0.000000 -0.000000 0.000000
vn -1.000000 -0.000000 0.000000
vn -1.000000 -0.000000 0.000000
vn 0.000000 -1.000000 -0.000000
vn 0.000000 -1.000000 -0.000000
vn 0.000000 -1.000000 -0.000000
vn 0.000000 -1.000000 -0.000000
vn 0.000000 0.000000 0.000000
vn 0.000000 0.000000 0.000000
vn 1.000000 0.000000 0.000000
vn 1.000000 0.000000 0.000000
vn 0.000000 -1.000000 0.000000
vn 0.000000 -1.000000 0.000000
vn 0.000000 -1.000000 0.000000
vn 0.000000 -1.000000 0.000000
vn -0.000000 -0.000000 0.000000
vn -0.000000 -0.000000 0.000000
vn -1.000000 -0.000000 0.000000
vn -1.000000 -0.000000 0.000000
vn 0.000000 -1.000000 0.000000
vn 0.000000 -1.000000 0.000000
vn 0.000000 -1.000000 0.000000
vn 0.000000 -1.000000 0.000000
vn 0.000000 0.000000 0.000000
vn 0.000000 0.000000 0.000000
vn 1.000000 0.000000 0.000000
vn 1.000000 0.000000 0.000000
vn -0.000000 -1.000000 -0.000000
vn -0.000000 -1.000000 -0.000000
vn -0.000000 -1.000000 -0.000000
vn -0.000000 -1.000000 -0.000000
vn 0.000000 0.000000 0.000000
vn 0.000000 0.000000 0.000000
vn 1.000000 0.000000 0.000000
vn 1.000000 0.000000 0.000000
vn -0.000000 -1.000000 0.000000
vn -0.000000 -1.000000 0.000000
vn -0.000000 -1.000000 0.000000
vn -0.000000 -1.000000 0.000000
vn -0.000000 -0.000000 0.000000
vn -0.000000 -0.000000 0.000000
vn -1.000000 -0.000000 0.000000
vn -1.000000 -0.000000 0.000000
vn 0.000000 -0.396582 0.917999
vn 0.000000 -0.396582 0.917999
vn 0.000000 -0.396582 0.917999
vn 0.000000 -0.396582 0.917999
vn -1.000000 -0.000000 0.000000
vn -1.000000 -0.000000 0.000000
vn -1.000000 -0.000000 0.000000
vn -1.000000 -0.000000 0.000000
vn 0.000000 -0.396582 -0.917999
vn 0.000000 -0.396582 -0.917999
vn 0.000000 -0.396582 -0.917999
vn 0.000000 -0.396582 -0.917999
vn 1.000000 0.000000 0.000000
vn 1.000000 0.000000 0.000000
vn 1.000000 0.000000 0.000000
vn 1.000000 0.000000 0.000000
vn 0.000000 -0.396583 0.917999
vn 0.000000 -0.396583 0.917999
vn 0.000000 -0.396583 0.917999
vn 0.000000 -0.396583 0.917999
vn -1.000000 -0.000000 0.000000
vn -1.000000 -0.000000 0.000000
vn -1.000000 -0.000000 0.000000
vn -1.000000 -0.000000 0.000000
vn 0.000000 -0.396583 -0.917999
vn 0.000000 -0.396583 -0.917999
vn 0.000000 -0.396583 -0.917999
vn 0.000000 -0.396583 -0.917999
vn 1.000000 0.000000 0.000000
vn 1.000000 0.000000 0.000000
vn 1.000000 0.000000 0.000000
vn 1.000000 0.000000 0.000000
vn 0.000000 -0.396582 0.917999
vn 0.000000 -0.396582 0.917999
vn 0.000000 -0.396582 0.917999
vn 0.000000 -0.396582 0.917999
vn -1.000000 -0.000000 0.000000
vn -1.000000 -0.000000 0.000000
vn -1.000000 -0.000000 0.000000
vn -1.000000 -0.000000 0.000000
vn 0.000000 -0.396583 -0.917999
vn 0.000000 -0.396583 -0.917999
vn 0.000000 -0.396583 -0.917999
vn 0.000000 -0.396583 -0.917999
vn 1.000000 0.000000 0.000000
vn 1.000000 0.000000 0.000000
vn 1.000000 0.000000 0.000000
vn 1.000000 0.000000 0.000000
vn 0.000000 -0.396583 -0.917999
vn 0.000000 -0.396583 -0.917999
vn 0.000000 -0.396583 -0.917999
vn 0.000000 -0.396583 -0.917999
vn 1.000000 0.000000 0.000000
vn 1.000000 0.000000 0.000000
vn 1.000000 0.000000 0.000000
vn 1.000000 0.000000 0.000000
vn 0.000000 -0.396583 0.917999
vn 0.000000 -0.396583 0.917999
vn 0.000000 -0.396583 0.917999
vn 0.000000 -0.396583 0.917999
vn -1.000000 -0.000000 0.000000
vn -1.000000 -0.000000 0.000000
vn -1.000000 -0.000000 0.000000
vn -1.000000 -0.000000 0.000000
vn 0.000000 -1.000000 0.000000
vn 0.000000 -1.000000 0.000000
vn 0.000000 -1.000000 0.000000
vn 0.000000 -1.000000 0.000000
vn 0.000000 -1.000000 0.000000
vn 0.000000 -1.000000 0.000000
vn 0.000000 -1.000000 0.000000
vn 0.000000 -1.000000 0.000000
vn 0.000000 -1.000000 0.000000
vn 0.000000 -1.000000 0.000000
vn 0.000000 -1.000000 0.000000
vn 0.000000 -1.000000 0.000000
vn 0.000000 -1.000000 0.000000
vn 0.000000 -1.000000 0.000000
vn 0.000000 -1.000000 0.000000
vn 0.000000 -1.000000 0.000000
vn 0.000000 -1.000000 0.000000
vn 0.000000 -1.000000 0.000000
vn 0.000000 -1.000000 0.000000
vn 0.000000 -1.000000 0.000000
vn 0.000000 -1.000000 0.000000
vn 0.000000 -1.000000 0.000000
vn 0.000000 -1.000000 0.000000
vn 0.000000 -1.000000 0.000000
vn 0.000000 -1.000000 0.000000
vn 0.000000 -1.000000 0.000000
vn 0.000000 -1.000000 0.000000
vn 0.000000 -1.000000 0.000000
vn 0.000000 -1.000000 0.000000
vn 0.000000 -1.000000 0.000000
vn 0.000000 -1.000000 0.000000
vn 0.000000 -1.000000 0.000000
vn 0.000000 -1.000000 0.000000
vn 0.000000 -1.000000 0.000000
vn 0.000000 -1.000000 0.000000
vn 0.000000 -1.000000 0.000000
vn 0.000000 -1.000000 0.000000
vn 0.000000 -1.000000 0.000000
vn 0.000000 -1.000000 0.000000
vn 0.000000 -1.000000 0.000000
vn 0.000000 -1.000000 0.000000
vn 0.000000 -1.000000 0.000000
vn 0.000000 -1.000000 0.000000
vn 0.000000 -1.000000 0.000000
vn 0.000000 -1.000000 0.000000
vn 0.000000 -1.000000 0.000000
vn 0.000000 -1.000000 0.000000
vn 0.000000 -1.000000 0.000000
vn 0.000000 -1.000000 0.000000
vn 0.000000 -1.000000 0.000000
vn 0.000000 -1.000000 0.000000
vn 0.000000 -1.000000 0.000000
vn 0.000000 -1.000000 0.000000
vn 0.000000 -1.000000 0.000000
vn 0.000000 -1.000000 0.000000
vn 0.000000 -1.000000 0.000000
s off
g pCube42
usemtl initialShadingGroup
f 73/1/1 74/2/2 75/3/3 76/4/4
s 1
f 35/6/5 36/7/6 49/9/7 50/12/8
s 2
f 39/14/9 40/15/10 45/17/11 46/20/12
s 3
f 31/24/13 32/25/14 53/114/15 54/115/16
s off
f 77/29/17 78/30/18 79/31/19 80/32/20
f 81/33/21 82/34/22 83/35/23 84/36/24
f 85/37/25 86/38/26 87/39/27 88/40/28
s 4
f 36/105/29 37/106/30 48/107/31 49/108/32
s off
f 8/117/33 6/120/34 19/121/35 18/124/36
s 5
f 50/8/37 51/21/38 34/22/39 35/5/40
s off
f 5/128/41 7/145/42 17/147/43 20/148/44
s 6
f 40/10/45 41/27/46 44/28/47 45/11/48
s off
f 16/149/49 13/150/50 23/151/51 22/152/52
s 7
f 46/129/53 47/130/54 38/131/55 39/132/56
s off
f 14/153/57 15/154/58 21/155/59 24/156/60
s 8
f 32/137/61 33/138/62 52/139/63 53/140/64
s off
f 9/157/65 11/158/66 27/159/67 25/160/68
s 9
f 54/16/69 55/125/70 30/126/71 31/13/72
s off
f 12/161/73 10/162/74 26/163/75 28/164/76
f 12/41/77 30/42/78 29/43/79 2/44/80
s 9
f 31/13/72 30/126/71 12/127/81 28/146/82
s 3
f 26/163/83 32/25/14 31/24/13 28/164/84
s 8
f 10/141/85 33/138/62 32/137/61 26/142/86
s off
f 5/45/87 34/46/88 33/47/89 10/48/90
s 5
f 35/5/40 34/22/39 5/23/91 20/26/92
s 1
f 17/147/93 36/7/6 35/6/5 20/148/94
s 4
f 7/109/95 37/106/30 36/105/29 17/110/96
s off
f 14/49/97 38/50/98 37/51/99 7/52/100
s 7
f 39/132/56 38/131/55 14/135/101 24/136/102
s 2
f 21/155/103 40/15/10 39/14/9 24/156/104
s 6
f 15/118/105 41/27/46 40/10/45 21/119/106
s off
f 42/53/107 41/54/108 15/55/109 1/56/110
f 4/57/111 16/58/112 44/59/113 43/60/114
s 6
f 45/11/48 44/28/47 16/113/115 22/116/116
s 2
f 46/20/12 45/17/11 22/152/117 23/151/118
s 7
f 13/133/119 47/130/54 46/129/53 23/134/120
s off
f 48/61/121 47/62/122 13/63/123 8/64/124
s 4
f 49/108/32 48/107/31 8/111/125 18/112/126
s 1
f 50/12/8 49/9/7 18/124/127 19/121/128
s 5
f 6/18/129 51/21/38 50/8/37 19/19/130
s off
f 52/65/131 51/66/132 6/67/133 9/68/134
s 8
f 53/140/64 52/139/63 9/143/135 25/144/136
s 3
f 54/115/16 53/114/15 25/160/137 27/159/138
s 9
f 11/122/139 55/125/70 54/16/69 27/123/140
s off
f 56/69/141 55/70/142 11/71/143 3/72/144
f 33/47/145 34/46/146 58/73/147 57/74/148
f 34//149 51//150 59//151 58//152
f 51/66/153 52/65/154 60/75/155 59/76/156
f 52//157 33//158 57//159 60//160
f 29/43/161 30/42/162 62/77/163 61/78/164
f 30//165 55//166 63//167 62//168
f 55/70/169 56/69/170 64/79/171 63/80/172
f 56//173 29//174 61//175 64//176
f 37/51/177 38/50/178 66/81/179 65/82/180
f 38//181 47//182 67//183 66//184
f 47/62/185 48/61/186 68/83/187 67/84/188
f 48//189 37//190 65//191 68//192
f 43/60/193 44/59/194 70/85/195 69/86/196
f 44//197 41//198 71//199 70//200
f 41/54/201 42/53/202 72/87/203 71/88/204
f 42//205 43//206 69//207 72//208
f 57/74/209 58/73/210 74/2/211 73/1/212
f 58//213 59//214 75//215 74//216
f 59/76/217 60/75/218 76/4/219 75/3/220
f 60//221 57//222 73//223 76//224
f 61/78/225 62/77/226 78/30/227 77/29/228
f 62//229 63//230 79//231 78//232
f 63/80/233 64/79/234 80/32/235 79/31/236
f 64//237 61//238 77//239 80//240
f 65/82/241 66/81/242 82/34/243 81/33/244
f 66//245 67//246 83//247 82//248
f 67/84/249 68/83/250 84/36/251 83/35/252
f 68//253 65//254 81//255 84//256
f 69/86/257 70/85/258 86/38/259 85/37/260
f 70//261 71//262 87//263 86//264
f 71/88/265 72/87/266 88/40/267 87/39/268
f 72//269 69//270 85//271 88//272
f 5/45/273 10/48/274 90/89/275 89/90/276
f 7/52/277 5/45/278 89/90/279 91/91/280
f 15/55/281 14/49/282 93/92/283 92/93/284
f 10/48/285 12/41/286 94/94/287 90/89/288
f 12/41/289 2/44/290 95/95/291 94/94/292
f 14/49/293 7/52/294 91/91/295 93/92/296
f 1/56/297 15/55/298 92/93/299 96/96/300
f 9/68/301 6/67/302 98/97/303 97/98/304
f 6/67/305 8/64/306 99/99/307 98/97/308
f 13/63/309 16/58/310 101/100/311 100/101/312
f 11/71/313 9/68/314 97/98/315 102/102/316
f 3/72/317 11/71/318 102/102/319 103/103/320
f 8/64/321 13/63/322 100/101/323 99/99/324
f 16/58/325 4/57/326 104/104/327 101/100/328
